<?xml version="1.0" encoding="utf-8"?><svg xmlns="http://www.w3.org/2000/svg" xmlns:xlink="http://www.w3.org/1999/xlink" width="3000" height="2000" preserveAspectRatio="xMidYMid" viewBox="0 0 3000 2000" style="z-index:1;margin-right:-2px;display:block;background-repeat-y:initial;background-repeat-x:initial;background-color:rgb(241, 242, 243);animation-play-state:paused" ><g transform="translate(1500,1000) scale(1,-1) translate(-1500,-1000)" style="transform:matrix(1, 0, 0, -1, 0, 2000);animation-play-state:paused" ><g id="bk-0.25039867607340693" style="animation-play-state:paused" ><path d="M 1287 1071 L 1565 831 L 1338 698 Z" stroke="#dedede" fill="#dedede" style="animation-play-state:paused" ></path>
<path d="M 1287 1071 L 1705 1137 L 1565 831 Z" stroke="#ebebeb" fill="#ebebeb" style="animation-play-state:paused" ></path>
<path d="M 1565 831 L 1413 646 L 1338 698 Z" stroke="#d4d4d4" fill="#d4d4d4" style="animation-play-state:paused" ></path>
<path d="M 1287 1071 L 1406 1249 L 1705 1137 Z" stroke="#dfdfdf" fill="#dfdfdf" style="animation-play-state:paused" ></path>
<path d="M 1413 646 L 1251 604 L 1338 698 Z" stroke="#cacaca" fill="#cacaca" style="animation-play-state:paused" ></path>
<path d="M 1338 698 L 959 990 L 1287 1071 Z" stroke="#d1d1d1" fill="#d1d1d1" style="animation-play-state:paused" ></path>
<path d="M 1911 985 L 1818 761 L 1565 831 Z" stroke="#d2d2d2" fill="#d2d2d2" style="animation-play-state:paused" ></path>
<path d="M 1565 831 L 1818 761 L 1413 646 Z" stroke="#d4d4d4" fill="#d4d4d4" style="animation-play-state:paused" ></path>
<path d="M 1920 1338 L 1911 985 L 1705 1137 Z" stroke="#cbcbcb" fill="#cbcbcb" style="animation-play-state:paused" ></path>
<path d="M 1705 1137 L 1911 985 L 1565 831 Z" stroke="#d8d8d8" fill="#d8d8d8" style="animation-play-state:paused" ></path>
<path d="M 959 990 L 1384 1275 L 1287 1071 Z" stroke="#d1d1d1" fill="#d1d1d1" style="animation-play-state:paused" ></path>
<path d="M 1287 1071 L 1384 1275 L 1406 1249 Z" stroke="#d7d7d7" fill="#d7d7d7" style="animation-play-state:paused" ></path>
<path d="M 1251 604 L 959 990 L 1338 698 Z" stroke="#cacaca" fill="#cacaca" style="animation-play-state:paused" ></path>
<path d="M 1911 985 L 1881 840 L 1818 761 Z" stroke="#cacaca" fill="#cacaca" style="animation-play-state:paused" ></path>
<path d="M 1823 1417 L 1920 1338 L 1406 1249 Z" stroke="#c9c9c9" fill="#c9c9c9" style="animation-play-state:paused" ></path>
<path d="M 1406 1249 L 1920 1338 L 1705 1137 Z" stroke="#d2d2d2" fill="#d2d2d2" style="animation-play-state:paused" ></path>
<path d="M 2266 1193 L 2260 855 L 1881 840 Z" stroke="#b4b4b4" fill="#b4b4b4" style="animation-play-state:paused" ></path>
<path d="M 1023 1183 L 1208 1336 L 1384 1275 Z" stroke="#c9c9c9" fill="#c9c9c9" style="animation-play-state:paused" ></path>
<path d="M 1384 1275 L 1473 1432 L 1406 1249 Z" stroke="#cfcfcf" fill="#cfcfcf" style="animation-play-state:paused" ></path>
<path d="M 959 990 L 1023 1183 L 1384 1275 Z" stroke="#c9c9c9" fill="#c9c9c9" style="animation-play-state:paused" ></path>
<path d="M 2088 717 L 1769 554 L 1818 761 Z" stroke="#c0c0c0" fill="#c0c0c0" style="animation-play-state:paused" ></path>
<path d="M 1818 761 L 1769 554 L 1413 646 Z" stroke="#cacaca" fill="#cacaca" style="animation-play-state:paused" ></path>
<path d="M 1413 646 L 1398 279 L 1251 604 Z" stroke="#bfbfbf" fill="#bfbfbf" style="animation-play-state:paused" ></path>
<path d="M 938 390 L 848 550 L 1251 604 Z" stroke="#b0b0b0" fill="#b0b0b0" style="animation-play-state:paused" ></path>
<path d="M 1251 604 L 848 550 L 959 990 Z" stroke="#bbbbbb" fill="#bbbbbb" style="animation-play-state:paused" ></path>
<path d="M 959 990 L 801 941 L 1023 1183 Z" stroke="#bababa" fill="#bababa" style="animation-play-state:paused" ></path>
<path d="M 1769 554 L 1398 279 L 1413 646 Z" stroke="#c0c0c0" fill="#c0c0c0" style="animation-play-state:paused" ></path>
<path d="M 1208 1336 L 1473 1432 L 1384 1275 Z" stroke="#cbcbcb" fill="#cbcbcb" style="animation-play-state:paused" ></path>
<path d="M 2260 855 L 2088 717 L 1881 840 Z" stroke="#b7b7b7" fill="#b7b7b7" style="animation-play-state:paused" ></path>
<path d="M 1881 840 L 2088 717 L 1818 761 Z" stroke="#c2c2c2" fill="#c2c2c2" style="animation-play-state:paused" ></path>
<path d="M 1473 1432 L 1823 1417 L 1406 1249 Z" stroke="#cccccc" fill="#cccccc" style="animation-play-state:paused" ></path>
<path d="M 1508 1743 L 1656 1509 L 1473 1432 Z" stroke="#bbbbbb" fill="#bbbbbb" style="animation-play-state:paused" ></path>
<path d="M 1473 1432 L 1656 1509 L 1823 1417 Z" stroke="#c2c2c2" fill="#c2c2c2" style="animation-play-state:paused" ></path>
<path d="M 1398 279 L 938 390 L 1251 604 Z" stroke="#b3b3b3" fill="#b3b3b3" style="animation-play-state:paused" ></path>
<path d="M 616 1078 L 968 1493 L 1023 1183 Z" stroke="#b1b1b1" fill="#b1b1b1" style="animation-play-state:paused" ></path>
<path d="M 1023 1183 L 968 1493 L 1208 1336 Z" stroke="#bcbcbc" fill="#bcbcbc" style="animation-play-state:paused" ></path>
<path d="M 1208 1336 L 1202 1642 L 1473 1432 Z" stroke="#bfbfbf" fill="#bfbfbf" style="animation-play-state:paused" ></path>
<path d="M 673 601 L 801 941 L 848 550 Z" stroke="#a5a5a5" fill="#a5a5a5" style="animation-play-state:paused" ></path>
<path d="M 848 550 L 801 941 L 959 990 Z" stroke="#b3b3b3" fill="#b3b3b3" style="animation-play-state:paused" ></path>
<path d="M 1769 554 L 1465 102 L 1398 279 Z" stroke="#b0b0b0" fill="#b0b0b0" style="animation-play-state:paused" ></path>
<path d="M 1398 279 L 1161 363 L 938 390 Z" stroke="#ababab" fill="#ababab" style="animation-play-state:paused" ></path>
<path d="M 2266 1193 L 1911 985 L 1920 1338 Z" stroke="#bbbbbb" fill="#bbbbbb" style="animation-play-state:paused" ></path>
<path d="M 2266 1193 L 1881 840 L 1911 985 Z" stroke="#bfbfbf" fill="#bfbfbf" style="animation-play-state:paused" ></path>
<path d="M 2053 463 L 1880 391 L 1769 554 Z" stroke="#b2b2b2" fill="#b2b2b2" style="animation-play-state:paused" ></path>
<path d="M 1126 55 L 1161 363 L 1398 279 Z" stroke="#a3a3a3" fill="#a3a3a3" style="animation-play-state:paused" ></path>
<path d="M 673 490 L 673 601 L 848 550 Z" stroke="#9b9b9b" fill="#9b9b9b" style="animation-play-state:paused" ></path>
<path d="M 2053 463 L 1769 554 L 2088 717 Z" stroke="#b5b5b5" fill="#b5b5b5" style="animation-play-state:paused" ></path>
<path d="M 1769 554 L 1778 191 L 1465 102 Z" stroke="#ababab" fill="#ababab" style="animation-play-state:paused" ></path>
<path d="M 2260 855 L 2053 463 L 2088 717 Z" stroke="#adadad" fill="#adadad" style="animation-play-state:paused" ></path>
<path d="M 673 490 L 848 550 L 938 390 Z" stroke="#9e9e9e" fill="#9e9e9e" style="animation-play-state:paused" ></path>
<path d="M 2367 1548 L 2266 1193 L 1920 1338 Z" stroke="#a7a7a7" fill="#a7a7a7" style="animation-play-state:paused" ></path>
<path d="M 968 1493 L 1202 1642 L 1208 1336 Z" stroke="#b6b6b6" fill="#b6b6b6" style="animation-play-state:paused" ></path>
<path d="M 1880 391 L 1778 191 L 1769 554 Z" stroke="#afafaf" fill="#afafaf" style="animation-play-state:paused" ></path>
<path d="M 1929 199 L 1778 191 L 1880 391 Z" stroke="#a2a2a2" fill="#a2a2a2" style="animation-play-state:paused" ></path>
<path d="M 425 833 L 616 1078 L 801 941 Z" stroke="#9b9b9b" fill="#9b9b9b" style="animation-play-state:paused" ></path>
<path d="M 801 941 L 616 1078 L 1023 1183 Z" stroke="#b0b0b0" fill="#b0b0b0" style="animation-play-state:paused" ></path>
<path d="M 1342 1720 L 1508 1743 L 1473 1432 Z" stroke="#b5b5b5" fill="#b5b5b5" style="animation-play-state:paused" ></path>
<path d="M 1656 1509 L 1862 1585 L 1823 1417 Z" stroke="#bababa" fill="#bababa" style="animation-play-state:paused" ></path>
<path d="M 1823 1417 L 1862 1585 L 1920 1338 Z" stroke="#b9b9b9" fill="#b9b9b9" style="animation-play-state:paused" ></path>
<path d="M 1893 1739 L 1862 1585 L 1656 1509 Z" stroke="#b0b0b0" fill="#b0b0b0" style="animation-play-state:paused" ></path>
<path d="M 1161 363 L 673 490 L 938 390 Z" stroke="#a2a2a2" fill="#a2a2a2" style="animation-play-state:paused" ></path>
<path d="M 673 601 L 569 723 L 801 941 Z" stroke="#9e9e9e" fill="#9e9e9e" style="animation-play-state:paused" ></path>
<path d="M 1202 1642 L 1342 1720 L 1473 1432 Z" stroke="#b6b6b6" fill="#b6b6b6" style="animation-play-state:paused" ></path>
<path d="M 1465 102 L 1126 55 L 1398 279 Z" stroke="#9d9d9d" fill="#9d9d9d" style="animation-play-state:paused" ></path>
<path d="M 1161 363 L 933 6 L 673 490 Z" stroke="#989898" fill="#989898" style="animation-play-state:paused" ></path>
<path d="M 1463 -78 L 1126 55 L 1465 102 Z" stroke="#919191" fill="#919191" style="animation-play-state:paused" ></path>
<path d="M 616 1078 L 808 1388 L 968 1493 Z" stroke="#a7a7a7" fill="#a7a7a7" style="animation-play-state:paused" ></path>
<path d="M 968 1493 L 870 1701 L 1202 1642 Z" stroke="#a6a6a6" fill="#a6a6a6" style="animation-play-state:paused" ></path>
<path d="M 1202 1642 L 1255 1866 L 1342 1720 Z" stroke="#a6a6a6" fill="#a6a6a6" style="animation-play-state:paused" ></path>
<path d="M 808 1388 L 870 1701 L 968 1493 Z" stroke="#a3a3a3" fill="#a3a3a3" style="animation-play-state:paused" ></path>
<path d="M 2312 621 L 2231 327 L 2053 463 Z" stroke="#9c9c9c" fill="#9c9c9c" style="animation-play-state:paused" ></path>
<path d="M 2053 463 L 2231 327 L 1880 391 Z" stroke="#a2a2a2" fill="#a2a2a2" style="animation-play-state:paused" ></path>
<path d="M 2312 621 L 2053 463 L 2260 855 Z" stroke="#a5a5a5" fill="#a5a5a5" style="animation-play-state:paused" ></path>
<path d="M 2231 327 L 1929 199 L 1880 391 Z" stroke="#9e9e9e" fill="#9e9e9e" style="animation-play-state:paused" ></path>
<path d="M 1807 -36 L 1463 -78 L 1465 102 Z" stroke="#8f8f8f" fill="#8f8f8f" style="animation-play-state:paused" ></path>
<path d="M 394 471 L 569 723 L 673 601 Z" stroke="#8c8c8c" fill="#8c8c8c" style="animation-play-state:paused" ></path>
<path d="M 616 1078 L 378 1430 L 808 1388 Z" stroke="#959595" fill="#959595" style="animation-play-state:paused" ></path>
<path d="M 2153 1579 L 2367 1548 L 1920 1338 Z" stroke="#a3a3a3" fill="#a3a3a3" style="animation-play-state:paused" ></path>
<path d="M 2438 934 L 2312 621 L 2260 855 Z" stroke="#9e9e9e" fill="#9e9e9e" style="animation-play-state:paused" ></path>
<path d="M 1893 1739 L 2153 1579 L 1862 1585 Z" stroke="#a5a5a5" fill="#a5a5a5" style="animation-play-state:paused" ></path>
<path d="M 1862 1585 L 2153 1579 L 1920 1338 Z" stroke="#afafaf" fill="#afafaf" style="animation-play-state:paused" ></path>
<path d="M 1896 2089 L 1893 1739 L 1508 1743 Z" stroke="#9a9a9a" fill="#9a9a9a" style="animation-play-state:paused" ></path>
<path d="M 1508 1743 L 1893 1739 L 1656 1509 Z" stroke="#b0b0b0" fill="#b0b0b0" style="animation-play-state:paused" ></path>
<path d="M 2438 934 L 2260 855 L 2266 1193 Z" stroke="#a2a2a2" fill="#a2a2a2" style="animation-play-state:paused" ></path>
<path d="M 1807 -36 L 1465 102 L 1778 191 Z" stroke="#979797" fill="#979797" style="animation-play-state:paused" ></path>
<path d="M 2199 116 L 1807 -36 L 1929 199 Z" stroke="#8d8d8d" fill="#8d8d8d" style="animation-play-state:paused" ></path>
<path d="M 1929 199 L 1807 -36 L 1778 191 Z" stroke="#959595" fill="#959595" style="animation-play-state:paused" ></path>
<path d="M 870 1701 L 1255 1866 L 1202 1642 Z" stroke="#a1a1a1" fill="#a1a1a1" style="animation-play-state:paused" ></path>
<path d="M 1342 1720 L 1517 2117 L 1508 1743 Z" stroke="#9e9e9e" fill="#9e9e9e" style="animation-play-state:paused" ></path>
<path d="M 771 1863 L 1255 1866 L 870 1701 Z" stroke="#939393" fill="#939393" style="animation-play-state:paused" ></path>
<path d="M 167 700 L 425 833 L 569 723 Z" stroke="#828282" fill="#828282" style="animation-play-state:paused" ></path>
<path d="M 569 723 L 425 833 L 801 941 Z" stroke="#989898" fill="#989898" style="animation-play-state:paused" ></path>
<path d="M 1196 -140 L 933 6 L 1126 55 Z" stroke="#858585" fill="#858585" style="animation-play-state:paused" ></path>
<path d="M 1126 55 L 933 6 L 1161 363 Z" stroke="#949494" fill="#949494" style="animation-play-state:paused" ></path>
<path d="M 673 490 L 394 471 L 673 601 Z" stroke="#8c8c8c" fill="#8c8c8c" style="animation-play-state:paused" ></path>
<path d="M 2573 1204 L 2438 934 L 2266 1193 Z" stroke="#979797" fill="#979797" style="animation-play-state:paused" ></path>
<path d="M 523 1763 L 758 1769 L 439 1748 Z" stroke="#7c7c7c" fill="#7c7c7c" style="animation-play-state:paused" ></path>
<path d="M 808 1388 L 758 1769 L 870 1701 Z" stroke="#979797" fill="#979797" style="animation-play-state:paused" ></path>
<path d="M 758 1769 L 771 1863 L 870 1701 Z" stroke="#8b8b8b" fill="#8b8b8b" style="animation-play-state:paused" ></path>
<path d="M 2153 1579 L 2453 1564 L 2367 1548 Z" stroke="#909090" fill="#909090" style="animation-play-state:paused" ></path>
<path d="M 2367 1548 L 2546 1362 L 2266 1193 Z" stroke="#939393" fill="#939393" style="animation-play-state:paused" ></path>
<path d="M 2521 1965 L 2453 1564 L 2153 1579 Z" stroke="#838383" fill="#838383" style="animation-play-state:paused" ></path>
<path d="M 2453 1564 L 2546 1362 L 2367 1548 Z" stroke="#888888" fill="#888888" style="animation-play-state:paused" ></path>
<path d="M 497 219 L 394 471 L 673 490 Z" stroke="#818181" fill="#818181" style="animation-play-state:paused" ></path>
<path d="M 2418 193 L 2199 116 L 2231 327 Z" stroke="#858585" fill="#858585" style="animation-play-state:paused" ></path>
<path d="M 2231 327 L 2199 116 L 1929 199 Z" stroke="#909090" fill="#909090" style="animation-play-state:paused" ></path>
<path d="M 1463 -78 L 1196 -140 L 1126 55 Z" stroke="#888888" fill="#888888" style="animation-play-state:paused" ></path>
<path d="M 1330 -451 L 1196 -140 L 1463 -78 Z" stroke="#787878" fill="#787878" style="animation-play-state:paused" ></path>
<path d="M 2312 621 L 2418 193 L 2231 327 Z" stroke="#8d8d8d" fill="#8d8d8d" style="animation-play-state:paused" ></path>
<path d="M 2694 513 L 2418 193 L 2312 621 Z" stroke="#838383" fill="#838383" style="animation-play-state:paused" ></path>
<path d="M 2546 1362 L 2573 1204 L 2266 1193 Z" stroke="#909090" fill="#909090" style="animation-play-state:paused" ></path>
<path d="M 933 6 L 497 219 L 673 490 Z" stroke="#858585" fill="#858585" style="animation-play-state:paused" ></path>
<path d="M 538 40 L 497 219 L 933 6 Z" stroke="#787878" fill="#787878" style="animation-play-state:paused" ></path>
<path d="M 1517 2117 L 1896 2089 L 1508 1743 Z" stroke="#909090" fill="#909090" style="animation-play-state:paused" ></path>
<path d="M 1893 1739 L 2214 1899 L 2153 1579 Z" stroke="#959595" fill="#959595" style="animation-play-state:paused" ></path>
<path d="M 323 1004 L 378 1430 L 616 1078 Z" stroke="#888888" fill="#888888" style="animation-play-state:paused" ></path>
<path d="M 758 1769 L 523 1763 L 771 1863 Z" stroke="#828282" fill="#828282" style="animation-play-state:paused" ></path>
<path d="M 1255 1866 L 1517 2117 L 1342 1720 Z" stroke="#999999" fill="#999999" style="animation-play-state:paused" ></path>
<path d="M 250 798 L 323 1004 L 425 833 Z" stroke="#7e7e7e" fill="#7e7e7e" style="animation-play-state:paused" ></path>
<path d="M 425 833 L 323 1004 L 616 1078 Z" stroke="#8b8b8b" fill="#8b8b8b" style="animation-play-state:paused" ></path>
<path d="M 2573 1204 L 2721 1110 L 2438 934 Z" stroke="#888888" fill="#888888" style="animation-play-state:paused" ></path>
<path d="M 2438 934 L 2694 513 L 2312 621 Z" stroke="#8d8d8d" fill="#8d8d8d" style="animation-play-state:paused" ></path>
<path d="M 2852 1320 L 2721 1110 L 2573 1204 Z" stroke="#787878" fill="#787878" style="animation-play-state:paused" ></path>
<path d="M 2679 1467 L 2573 1204 L 2546 1362 Z" stroke="#808080" fill="#808080" style="animation-play-state:paused" ></path>
<path d="M 688 -226 L 538 40 L 933 6 Z" stroke="#707070" fill="#707070" style="animation-play-state:paused" ></path>
<path d="M 2750 831 L 2694 513 L 2438 934 Z" stroke="#808080" fill="#808080" style="animation-play-state:paused" ></path>
<path d="M 2418 193 L 2313 95 L 2199 116 Z" stroke="#7d7d7d" fill="#7d7d7d" style="animation-play-state:paused" ></path>
<path d="M 2199 116 L 1824 -268 L 1807 -36 Z" stroke="#818181" fill="#818181" style="animation-play-state:paused" ></path>
<path d="M 1807 -36 L 1824 -268 L 1463 -78 Z" stroke="#818181" fill="#818181" style="animation-play-state:paused" ></path>
<path d="M 2721 1110 L 2750 831 L 2438 934 Z" stroke="#828282" fill="#828282" style="animation-play-state:paused" ></path>
<path d="M 222 178 L 394 471 L 497 219 Z" stroke="#6f6f6f" fill="#6f6f6f" style="animation-play-state:paused" ></path>
<path d="M 35 227 L 167 700 L 394 471 Z" stroke="#646464" fill="#646464" style="animation-play-state:paused" ></path>
<path d="M 394 471 L 167 700 L 569 723 Z" stroke="#7e7e7e" fill="#7e7e7e" style="animation-play-state:paused" ></path>
<path d="M 439 1748 L 758 1769 L 808 1388 Z" stroke="#8b8b8b" fill="#8b8b8b" style="animation-play-state:paused" ></path>
<path d="M 1259 2112 L 1562 2243 L 1255 1866 Z" stroke="#878787" fill="#878787" style="animation-play-state:paused" ></path>
<path d="M 1255 1866 L 1562 2243 L 1517 2117 Z" stroke="#888888" fill="#888888" style="animation-play-state:paused" ></path>
<path d="M 250 798 L 140 1229 L 323 1004 Z" stroke="#767676" fill="#767676" style="animation-play-state:paused" ></path>
<path d="M 323 1004 L 140 1229 L 378 1430 Z" stroke="#787878" fill="#787878" style="animation-play-state:paused" ></path>
<path d="M 378 1430 L 439 1748 L 808 1388 Z" stroke="#878787" fill="#878787" style="animation-play-state:paused" ></path>
<path d="M 101 1524 L 439 1748 L 378 1430 Z" stroke="#707070" fill="#707070" style="animation-play-state:paused" ></path>
<path d="M 1259 2112 L 1255 1866 L 966 2045 Z" stroke="#898989" fill="#898989" style="animation-play-state:paused" ></path>
<path d="M 1786 2408 L 1999 2195 L 1896 2089 Z" stroke="#737373" fill="#737373" style="animation-play-state:paused" ></path>
<path d="M 2590 21 L 2313 95 L 2418 193 Z" stroke="#727272" fill="#727272" style="animation-play-state:paused" ></path>
<path d="M 2199 116 L 2067 -133 L 1824 -268 Z" stroke="#7a7a7a" fill="#7a7a7a" style="animation-play-state:paused" ></path>
<path d="M 167 700 L 250 798 L 425 833 Z" stroke="#787878" fill="#787878" style="animation-play-state:paused" ></path>
<path d="M 830 -364 L 933 6 L 1196 -140 Z" stroke="#757575" fill="#757575" style="animation-play-state:paused" ></path>
<path d="M 830 -364 L 688 -226 L 933 6 Z" stroke="#696969" fill="#696969" style="animation-play-state:paused" ></path>
<path d="M 538 40 L 222 178 L 497 219 Z" stroke="#696969" fill="#696969" style="animation-play-state:paused" ></path>
<path d="M 966 2045 L 1255 1866 L 771 1863 Z" stroke="#8a8a8a" fill="#8a8a8a" style="animation-play-state:paused" ></path>
<path d="M 2313 95 L 2067 -133 L 2199 116 Z" stroke="#7c7c7c" fill="#7c7c7c" style="animation-play-state:paused" ></path>
<path d="M 1650 -444 L 1463 -78 L 1824 -268 Z" stroke="#757575" fill="#757575" style="animation-play-state:paused" ></path>
<path d="M 1650 -444 L 1330 -451 L 1463 -78 Z" stroke="#707070" fill="#707070" style="animation-play-state:paused" ></path>
<path d="M 688 2244 L 771 1863 L 523 1763 Z" stroke="#757575" fill="#757575" style="animation-play-state:paused" ></path>
<path d="M 688 2244 L 966 2045 L 771 1863 Z" stroke="#767676" fill="#767676" style="animation-play-state:paused" ></path>
<path d="M 2178 2196 L 2214 1899 L 1893 1739 Z" stroke="#848484" fill="#848484" style="animation-play-state:paused" ></path>
<path d="M 2453 1564 L 2679 1467 L 2546 1362 Z" stroke="#808080" fill="#808080" style="animation-play-state:paused" ></path>
<path d="M 2178 2196 L 1893 1739 L 1896 2089 Z" stroke="#848484" fill="#848484" style="animation-play-state:paused" ></path>
<path d="M 1786 2408 L 1517 2117 L 1562 2243 Z" stroke="#767676" fill="#767676" style="animation-play-state:paused" ></path>
<path d="M 1786 2408 L 1896 2089 L 1517 2117 Z" stroke="#797979" fill="#797979" style="animation-play-state:paused" ></path>
<path d="M 888 -352 L 830 -364 L 1196 -140 Z" stroke="#676767" fill="#676767" style="animation-play-state:paused" ></path>
<path d="M 2312 -365 L 2002 -390 L 2067 -133 Z" stroke="#5e5e5e" fill="#5e5e5e" style="animation-play-state:paused" ></path>
<path d="M 2067 -133 L 2002 -390 L 1824 -268 Z" stroke="#6e6e6e" fill="#6e6e6e" style="animation-play-state:paused" ></path>
<path d="M 1999 2195 L 2178 2196 L 1896 2089 Z" stroke="#757575" fill="#757575" style="animation-play-state:paused" ></path>
<path d="M 1043 -450 L 888 -352 L 1196 -140 Z" stroke="#666666" fill="#666666" style="animation-play-state:paused" ></path>
<path d="M 2002 -390 L 1650 -444 L 1824 -268 Z" stroke="#646464" fill="#646464" style="animation-play-state:paused" ></path>
<path d="M 1330 -451 L 1043 -450 L 1196 -140 Z" stroke="#686868" fill="#686868" style="animation-play-state:paused" ></path>
<path d="M 2521 1965 L 2153 1579 L 2214 1899 Z" stroke="#828282" fill="#828282" style="animation-play-state:paused" ></path>
<path d="M 2729 1794 L 2679 1467 L 2453 1564 Z" stroke="#747474" fill="#747474" style="animation-play-state:paused" ></path>
<path d="M 2721 1110 L 2910 810 L 2750 831 Z" stroke="#727272" fill="#727272" style="animation-play-state:paused" ></path>
<path d="M 2498 2204 L 2521 1965 L 2214 1899 Z" stroke="#6a6a6a" fill="#6a6a6a" style="animation-play-state:paused" ></path>
<path d="M 1650 -444 L 1043 -450 L 1330 -451 Z" stroke="#5c5c5c" fill="#5c5c5c" style="animation-play-state:paused" ></path>
<path d="M 2750 831 L 2799 461 L 2694 513 Z" stroke="#717171" fill="#717171" style="animation-play-state:paused" ></path>
<path d="M 2694 513 L 2590 21 L 2418 193 Z" stroke="#717171" fill="#717171" style="animation-play-state:paused" ></path>
<path d="M 2955 682 L 2799 461 L 2750 831 Z" stroke="#696969" fill="#696969" style="animation-play-state:paused" ></path>
<path d="M -130 1133 L 20 1315 L 140 1229 Z" stroke="#535353" fill="#535353" style="animation-play-state:paused" ></path>
<path d="M 140 1229 L 20 1315 L 378 1430 Z" stroke="#6c6c6c" fill="#6c6c6c" style="animation-play-state:paused" ></path>
<path d="M 439 1748 L 429 1839 L 523 1763 Z" stroke="#727272" fill="#727272" style="animation-play-state:paused" ></path>
<path d="M 101 1524 L 429 1839 L 439 1748 Z" stroke="#6a6a6a" fill="#6a6a6a" style="animation-play-state:paused" ></path>
<path d="M 2590 21 L 2560 -209 L 2313 95 Z" stroke="#606060" fill="#606060" style="animation-play-state:paused" ></path>
<path d="M 2313 95 L 2560 -209 L 2067 -133 Z" stroke="#6d6d6d" fill="#6d6d6d" style="animation-play-state:paused" ></path>
<path d="M 276 -249 L 538 40 L 688 -226 Z" stroke="#515151" fill="#515151" style="animation-play-state:paused" ></path>
<path d="M 276 -249 L 222 178 L 538 40 Z" stroke="#4f4f4f" fill="#4f4f4f" style="animation-play-state:paused" ></path>
<path d="M -131 527 L 38 935 L 250 798 Z" stroke="#5a5a5a" fill="#5a5a5a" style="animation-play-state:paused" ></path>
<path d="M 250 798 L -130 1133 L 140 1229 Z" stroke="#636363" fill="#636363" style="animation-play-state:paused" ></path>
<path d="M 429 1839 L 688 2244 L 523 1763 Z" stroke="#6e6e6e" fill="#6e6e6e" style="animation-play-state:paused" ></path>
<path d="M 1202 2491 L 1351 2408 L 1259 2112 Z" stroke="#6c6c6c" fill="#6c6c6c" style="animation-play-state:paused" ></path>
<path d="M 2799 461 L 2590 21 L 2694 513 Z" stroke="#6a6a6a" fill="#6a6a6a" style="animation-play-state:paused" ></path>
<path d="M 222 178 L 35 227 L 394 471 Z" stroke="#5a5a5a" fill="#5a5a5a" style="animation-play-state:paused" ></path>
<path d="M 2974 1746 L 2852 1320 L 2679 1467 Z" stroke="#606060" fill="#606060" style="animation-play-state:paused" ></path>
<path d="M 2679 1467 L 2852 1320 L 2573 1204 Z" stroke="#777777" fill="#777777" style="animation-play-state:paused" ></path>
<path d="M 888 -352 L 784 -404 L 830 -364 Z" stroke="#505050" fill="#505050" style="animation-play-state:paused" ></path>
<path d="M 830 -364 L 784 -404 L 688 -226 Z" stroke="#515151" fill="#515151" style="animation-play-state:paused" ></path>
<path d="M 1043 -450 L 784 -404 L 888 -352 Z" stroke="#515151" fill="#515151" style="animation-play-state:paused" ></path>
<path d="M -131 527 L 250 798 L 167 700 Z" stroke="#5e5e5e" fill="#5e5e5e" style="animation-play-state:paused" ></path>
<path d="M 2625 -278 L 2312 -365 L 2560 -209 Z" stroke="#414141" fill="#414141" style="animation-play-state:paused" ></path>
<path d="M 2560 -209 L 2312 -365 L 2067 -133 Z" stroke="#585858" fill="#585858" style="animation-play-state:paused" ></path>
<path d="M 2002 -390 L 2312 -365 L 1650 -444 Z" stroke="#575757" fill="#575757" style="animation-play-state:paused" ></path>
<path d="M 3054 1117 L 2910 810 L 2721 1110 Z" stroke="#666666" fill="#666666" style="animation-play-state:paused" ></path>
<path d="M 902 2454 L 1259 2112 L 966 2045 Z" stroke="#737373" fill="#737373" style="animation-play-state:paused" ></path>
<path d="M 1259 2112 L 1351 2408 L 1562 2243 Z" stroke="#767676" fill="#767676" style="animation-play-state:paused" ></path>
<path d="M 1999 2195 L 2127 2405 L 2178 2196 Z" stroke="#656565" fill="#656565" style="animation-play-state:paused" ></path>
<path d="M 1351 2408 L 1786 2408 L 1562 2243 Z" stroke="#6d6d6d" fill="#6d6d6d" style="animation-play-state:paused" ></path>
<path d="M 2178 2196 L 2498 2204 L 2214 1899 Z" stroke="#6c6c6c" fill="#6c6c6c" style="animation-play-state:paused" ></path>
<path d="M 20 1315 L 101 1524 L 378 1430 Z" stroke="#656565" fill="#656565" style="animation-play-state:paused" ></path>
<path d="M 9 1354 L 101 1524 L 20 1315 Z" stroke="#535353" fill="#535353" style="animation-play-state:paused" ></path>
<path d="M 2521 1965 L 2729 1794 L 2453 1564 Z" stroke="#707070" fill="#707070" style="animation-play-state:paused" ></path>
<path d="M 38 935 L -130 1133 L 250 798 Z" stroke="#5d5d5d" fill="#5d5d5d" style="animation-play-state:paused" ></path>
<path d="M 2127 2405 L 2498 2204 L 2178 2196 Z" stroke="#575757" fill="#575757" style="animation-play-state:paused" ></path>
<path d="M 2521 1965 L 2631 1967 L 2729 1794 Z" stroke="#5d5d5d" fill="#5d5d5d" style="animation-play-state:paused" ></path>
<path d="M 3295 1153 L 3054 1117 L 2852 1320 Z" stroke="#484848" fill="#484848" style="animation-play-state:paused" ></path>
<path d="M 2852 1320 L 3054 1117 L 2721 1110 Z" stroke="#676767" fill="#676767" style="animation-play-state:paused" ></path>
<path d="M 35 227 L -131 527 L 167 700 Z" stroke="#4a4a4a" fill="#4a4a4a" style="animation-play-state:paused" ></path>
<path d="M 38 935 L -317 915 L -130 1133 Z" stroke="#3f3f3f" fill="#3f3f3f" style="animation-play-state:paused" ></path>
<path d="M 688 2244 L 902 2454 L 966 2045 Z" stroke="#646464" fill="#646464" style="animation-play-state:paused" ></path>
<path d="M 902 2454 L 1202 2491 L 1259 2112 Z" stroke="#646464" fill="#646464" style="animation-play-state:paused" ></path>
<path d="M 1351 2408 L 1202 2491 L 1786 2408 Z" stroke="#5f5f5f" fill="#5f5f5f" style="animation-play-state:paused" ></path>
<path d="M 3145 667 L 2955 682 L 2910 810 Z" stroke="#505050" fill="#505050" style="animation-play-state:paused" ></path>
<path d="M 2910 810 L 2955 682 L 2750 831 Z" stroke="#676767" fill="#676767" style="animation-play-state:paused" ></path>
<path d="M 2799 461 L 3087 109 L 2590 21 Z" stroke="#4d4d4d" fill="#4d4d4d" style="animation-play-state:paused" ></path>
<path d="M 222 178 L -66 151 L 35 227 Z" stroke="#3d3d3d" fill="#3d3d3d" style="animation-play-state:paused" ></path>
<path d="M 35 227 L -103 346 L -131 527 Z" stroke="#373737" fill="#373737" style="animation-play-state:paused" ></path>
<path d="M -15 -82 L -66 151 L 222 178 Z" stroke="#333333" fill="#333333" style="animation-play-state:paused" ></path>
<path d="M 1963 2457 L 1999 2195 L 1786 2408 Z" stroke="#626262" fill="#626262" style="animation-play-state:paused" ></path>
<path d="M 1963 2457 L 2127 2405 L 1999 2195 Z" stroke="#5c5c5c" fill="#5c5c5c" style="animation-play-state:paused" ></path>
<path d="M -300 1469 L 9 1354 L -477 1349 Z" stroke="#272727" fill="#272727" style="animation-play-state:paused" ></path>
<path d="M -130 1133 L 9 1354 L 20 1315 Z" stroke="#4b4b4b" fill="#4b4b4b" style="animation-play-state:paused" ></path>
<path d="M 101 1998 L 424 2162 L 429 1839 Z" stroke="#4d4d4d" fill="#4d4d4d" style="animation-play-state:paused" ></path>
<path d="M 2709 2348 L 2631 1967 L 2498 2204 Z" stroke="#424242" fill="#424242" style="animation-play-state:paused" ></path>
<path d="M 2498 2204 L 2631 1967 L 2521 1965 Z" stroke="#585858" fill="#585858" style="animation-play-state:paused" ></path>
<path d="M 688 2244 L 584 2316 L 902 2454 Z" stroke="#4d4d4d" fill="#4d4d4d" style="animation-play-state:paused" ></path>
<path d="M 429 1839 L 424 2162 L 688 2244 Z" stroke="#5a5a5a" fill="#5a5a5a" style="animation-play-state:paused" ></path>
<path d="M 101 1998 L 429 1839 L 101 1524 Z" stroke="#535353" fill="#535353" style="animation-play-state:paused" ></path>
<path d="M 60 2115 L 101 1998 L -212 1866 Z" stroke="#252525" fill="#252525" style="animation-play-state:paused" ></path>
<path d="M 2955 682 L 3016 358 L 2799 461 Z" stroke="#535353" fill="#535353" style="animation-play-state:paused" ></path>
<path d="M 2590 21 L 2711 -158 L 2560 -209 Z" stroke="#484848" fill="#484848" style="animation-play-state:paused" ></path>
<path d="M 2872 -346 L 2711 -158 L 2590 21 Z" stroke="#373737" fill="#373737" style="animation-play-state:paused" ></path>
<path d="M 2711 -158 L 2625 -278 L 2560 -209 Z" stroke="#3b3b3b" fill="#3b3b3b" style="animation-play-state:paused" ></path>
<path d="M 3355 1043 L 3145 667 L 2910 810 Z" stroke="#3e3e3e" fill="#3e3e3e" style="animation-play-state:paused" ></path>
<path d="M 2955 682 L 3332 581 L 3016 358 Z" stroke="#3b3b3b" fill="#3b3b3b" style="animation-play-state:paused" ></path>
<path d="M 494 -313 L 276 -249 L 688 -226 Z" stroke="#424242" fill="#424242" style="animation-play-state:paused" ></path>
<path d="M 1043 -450 L 494 -313 L 784 -404 Z" stroke="#4a4a4a" fill="#4a4a4a" style="animation-play-state:paused" ></path>
<path d="M 784 -404 L 494 -313 L 688 -226 Z" stroke="#4b4b4b" fill="#4b4b4b" style="animation-play-state:paused" ></path>
<path d="M 424 2162 L 584 2316 L 688 2244 Z" stroke="#4c4c4c" fill="#4c4c4c" style="animation-play-state:paused" ></path>
<path d="M 902 2454 L 554 2540 L 1202 2491 Z" stroke="#424242" fill="#424242" style="animation-play-state:paused" ></path>
<path d="M -131 527 L -317 915 L 38 935 Z" stroke="#3d3d3d" fill="#3d3d3d" style="animation-play-state:paused" ></path>
<path d="M -424 641 L -317 915 L -131 527 Z" stroke="#242424" fill="#242424" style="animation-play-state:paused" ></path>
<path d="M 2709 2348 L 2779 2077 L 2631 1967 Z" stroke="#3c3c3c" fill="#3c3c3c" style="animation-play-state:paused" ></path>
<path d="M 2631 1967 L 2779 2077 L 2729 1794 Z" stroke="#4e4e4e" fill="#4e4e4e" style="animation-play-state:paused" ></path>
<path d="M 2729 1794 L 2974 1746 L 2679 1467 Z" stroke="#5c5c5c" fill="#5c5c5c" style="animation-play-state:paused" ></path>
<path d="M 3394 743 L 3332 581 L 3145 667 Z" stroke="#242424" fill="#242424" style="animation-play-state:paused" ></path>
<path d="M 1202 2491 L 1963 2457 L 1786 2408 Z" stroke="#5b5b5b" fill="#5b5b5b" style="animation-play-state:paused" ></path>
<path d="M 2127 2405 L 2432 2491 L 2498 2204 Z" stroke="#434343" fill="#434343" style="animation-play-state:paused" ></path>
<path d="M 3382 500 L 3087 109 L 3016 358 Z" stroke="#282828" fill="#282828" style="animation-play-state:paused" ></path>
<path d="M 3016 358 L 3087 109 L 2799 461 Z" stroke="#414141" fill="#414141" style="animation-play-state:paused" ></path>
<path d="M 3087 1923 L 2974 1746 L 2729 1794 Z" stroke="#3d3d3d" fill="#3d3d3d" style="animation-play-state:paused" ></path>
<path d="M -15 -82 L -103 346 L -66 151 Z" stroke="#292929" fill="#292929" style="animation-play-state:paused" ></path>
<path d="M -66 151 L -103 346 L 35 227 Z" stroke="#323232" fill="#323232" style="animation-play-state:paused" ></path>
<path d="M 9 1354 L -300 1469 L 101 1524 Z" stroke="#414141" fill="#414141" style="animation-play-state:paused" ></path>
<path d="M 101 1998 L 60 2115 L 424 2162 Z" stroke="#353535" fill="#353535" style="animation-play-state:paused" ></path>
<path d="M -477 1349 L 9 1354 L -130 1133 Z" stroke="#323232" fill="#323232" style="animation-play-state:paused" ></path>
<path d="M -212 1866 L 101 1998 L 101 1524 Z" stroke="#353535" fill="#353535" style="animation-play-state:paused" ></path>
<path d="M 424 2162 L 554 2540 L 584 2316 Z" stroke="#3c3c3c" fill="#3c3c3c" style="animation-play-state:paused" ></path>
<path d="M 2872 -346 L 2774 -290 L 2711 -158 Z" stroke="#262626" fill="#262626" style="animation-play-state:paused" ></path>
<path d="M 2711 -158 L 2774 -290 L 2625 -278 Z" stroke="#313131" fill="#313131" style="animation-play-state:paused" ></path>
<path d="M 2625 -278 L 2788 -415 L 2312 -365 Z" stroke="#313131" fill="#313131" style="animation-play-state:paused" ></path>
<path d="M 2312 -365 L 2788 -415 L 1650 -444 Z" stroke="#454545" fill="#454545" style="animation-play-state:paused" ></path>
<path d="M 3355 1043 L 2910 810 L 3054 1117 Z" stroke="#444444" fill="#444444" style="animation-play-state:paused" ></path>
<path d="M 3145 667 L 3332 581 L 2955 682 Z" stroke="#383838" fill="#383838" style="animation-play-state:paused" ></path>
<path d="M 3087 109 L 2872 -346 L 2590 21 Z" stroke="#323232" fill="#323232" style="animation-play-state:paused" ></path>
<path d="M 3145 -145 L 2872 -346 L 3087 109 Z" stroke="#181818" fill="#181818" style="animation-play-state:paused" ></path>
<path d="M -16 -350 L -55 -309 L 11 -477 Z" stroke="#000000" fill="#000000" style="animation-play-state:paused" ></path>
<path d="M 276 -249 L -55 -309 L 222 178 Z" stroke="#2d2d2d" fill="#2d2d2d" style="animation-play-state:paused" ></path>
<path d="M -55 -309 L -15 -82 L 222 178 Z" stroke="#262626" fill="#262626" style="animation-play-state:paused" ></path>
<path d="M 2779 2077 L 3087 1923 L 2729 1794 Z" stroke="#3d3d3d" fill="#3d3d3d" style="animation-play-state:paused" ></path>
<path d="M 3330 1451 L 3295 1153 L 2852 1320 Z" stroke="#373737" fill="#373737" style="animation-play-state:paused" ></path>
<path d="M 3204 2016 L 3087 1923 L 2779 2077 Z" stroke="#232323" fill="#232323" style="animation-play-state:paused" ></path>
<path d="M 174 2387 L 554 2540 L 424 2162 Z" stroke="#2c2c2c" fill="#2c2c2c" style="animation-play-state:paused" ></path>
<path d="M 584 2316 L 554 2540 L 902 2454 Z" stroke="#3c3c3c" fill="#3c3c3c" style="animation-play-state:paused" ></path>
<path d="M 1202 2491 L 554 2540 L 1963 2457 Z" stroke="#525252" fill="#525252" style="animation-play-state:paused" ></path>
<path d="M 3330 1451 L 2852 1320 L 2974 1746 Z" stroke="#404040" fill="#404040" style="animation-play-state:paused" ></path>
<path d="M 3087 1923 L 3085 1684 L 2974 1746 Z" stroke="#303030" fill="#303030" style="animation-play-state:paused" ></path>
<path d="M -300 1469 L -212 1866 L 101 1524 Z" stroke="#2e2e2e" fill="#2e2e2e" style="animation-play-state:paused" ></path>
<path d="M 1963 2457 L 2432 2491 L 2127 2405 Z" stroke="#454545" fill="#454545" style="animation-play-state:paused" ></path>
<path d="M 3488 620 L 3382 500 L 3332 581 Z" stroke="#121212" fill="#121212" style="animation-play-state:paused" ></path>
<path d="M 3332 581 L 3382 500 L 3016 358 Z" stroke="#242424" fill="#242424" style="animation-play-state:paused" ></path>
<path d="M 2432 2491 L 2709 2348 L 2498 2204 Z" stroke="#343434" fill="#343434" style="animation-play-state:paused" ></path>
<path d="M 3308 1614 L 2974 1746 L 3085 1684 Z" stroke="#2d2d2d" fill="#2d2d2d" style="animation-play-state:paused" ></path>
<path d="M -346 385 L -424 641 L -103 346 Z" stroke="#1d1d1d" fill="#1d1d1d" style="animation-play-state:paused" ></path>
<path d="M -103 346 L -424 641 L -131 527 Z" stroke="#282828" fill="#282828" style="animation-play-state:paused" ></path>
<path d="M -317 915 L -477 1349 L -130 1133 Z" stroke="#252525" fill="#252525" style="animation-play-state:paused" ></path>
<path d="M -300 1469 L -256 1752 L -212 1866 Z" stroke="#1a1a1a" fill="#1a1a1a" style="animation-play-state:paused" ></path>
<path d="M -556 595 L -535 974 L -317 915 Z" stroke="#0d0d0d" fill="#0d0d0d" style="animation-play-state:paused" ></path>
<path d="M -408 -34 L -346 385 L -103 346 Z" stroke="#131313" fill="#131313" style="animation-play-state:paused" ></path>
<path d="M -498 1463 L -256 1752 L -300 1469 Z" stroke="#141414" fill="#141414" style="animation-play-state:paused" ></path>
<path d="M 3457 1377 L 3355 1043 L 3295 1153 Z" stroke="#1c1c1c" fill="#1c1c1c" style="animation-play-state:paused" ></path>
<path d="M 3295 1153 L 3355 1043 L 3054 1117 Z" stroke="#303030" fill="#303030" style="animation-play-state:paused" ></path>
<path d="M -535 974 L -477 1349 L -317 915 Z" stroke="#131313" fill="#131313" style="animation-play-state:paused" ></path>
<path d="M 3308 1614 L 3085 1684 L 3204 2016 Z" stroke="#1e1e1e" fill="#1e1e1e" style="animation-play-state:paused" ></path>
<path d="M 3308 1614 L 3330 1451 L 2974 1746 Z" stroke="#262626" fill="#262626" style="animation-play-state:paused" ></path>
<path d="M -55 -309 L -16 -350 L -15 -82 Z" stroke="#0d0d0d" fill="#0d0d0d" style="animation-play-state:paused" ></path>
<path d="M -15 -82 L -408 -34 L -103 346 Z" stroke="#171717" fill="#171717" style="animation-play-state:paused" ></path>
<path d="M 11 -477 L -55 -309 L 276 -249 Z" stroke="#101010" fill="#101010" style="animation-play-state:paused" ></path>
<path d="M 3457 1377 L 3394 743 L 3355 1043 Z" stroke="#191919" fill="#191919" style="animation-play-state:paused" ></path>
<path d="M 3355 1043 L 3394 743 L 3145 667 Z" stroke="#262626" fill="#262626" style="animation-play-state:paused" ></path>
<path d="M 60 2115 L 174 2387 L 424 2162 Z" stroke="#2b2b2b" fill="#2b2b2b" style="animation-play-state:paused" ></path>
<path d="M 69 2458 L 174 2387 L 60 2115 Z" stroke="#161616" fill="#161616" style="animation-play-state:paused" ></path>
<path d="M -311 2119 L 60 2115 L -212 1866 Z" stroke="#121212" fill="#121212" style="animation-play-state:paused" ></path>
<path d="M 3204 2016 L 3085 1684 L 3087 1923 Z" stroke="#202020" fill="#202020" style="animation-play-state:paused" ></path>
<path d="M 3487 318 L 3416 212 L 3382 500 Z" stroke="#000000" fill="#000000" style="animation-play-state:paused" ></path>
<path d="M 3382 500 L 3416 212 L 3087 109 Z" stroke="#141414" fill="#141414" style="animation-play-state:paused" ></path>
<path d="M 3253 -395 L 2788 -415 L 2872 -346 Z" stroke="#020202" fill="#020202" style="animation-play-state:paused" ></path>
<path d="M 2872 -346 L 2788 -415 L 2774 -290 Z" stroke="#1b1b1b" fill="#1b1b1b" style="animation-play-state:paused" ></path>
<path d="M 2774 -290 L 2788 -415 L 2625 -278 Z" stroke="#252525" fill="#252525" style="animation-play-state:paused" ></path>
<path d="M 3394 743 L 3488 620 L 3332 581 Z" stroke="#141414" fill="#141414" style="animation-play-state:paused" ></path>
<path d="M -344 1796 L -212 1866 L -256 1752 Z" stroke="#121212" fill="#121212" style="animation-play-state:paused" ></path>
<path d="M -344 1796 L -311 2119 L -212 1866 Z" stroke="#030303" fill="#030303" style="animation-play-state:paused" ></path>
<path d="M 494 -313 L 11 -477 L 276 -249 Z" stroke="#232323" fill="#232323" style="animation-play-state:paused" ></path>
<path d="M 1043 -450 L 11 -477 L 494 -313 Z" stroke="#323232" fill="#323232" style="animation-play-state:paused" ></path>
<path d="M 1650 -444 L 11 -477 L 1043 -450 Z" stroke="#494949" fill="#494949" style="animation-play-state:paused" ></path>
<path d="M 2788 -415 L 11 -477 L 1650 -444 Z" stroke="#5d5d5d" fill="#5d5d5d" style="animation-play-state:paused" ></path>
<path d="M -535 974 L -518 1280 L -477 1349 Z" stroke="#020202" fill="#020202" style="animation-play-state:paused" ></path>
<path d="M -477 1349 L -498 1463 L -300 1469 Z" stroke="#0e0e0e" fill="#0e0e0e" style="animation-play-state:paused" ></path>
<path d="M -709 736 L -518 1280 L -535 974 Z" stroke="#000000" fill="#000000" style="animation-play-state:paused" ></path>
<path d="M -556 595 L -317 915 L -424 641 Z" stroke="#111111" fill="#111111" style="animation-play-state:paused" ></path>
<path d="M 3077 2268 L 2779 2077 L 2709 2348 Z" stroke="#222222" fill="#222222" style="animation-play-state:paused" ></path>
<path d="M 3077 2268 L 3204 2016 L 2779 2077 Z" stroke="#1b1b1b" fill="#1b1b1b" style="animation-play-state:paused" ></path>
<path d="M -792 263 L -424 641 L -346 385 Z" stroke="#000000" fill="#000000" style="animation-play-state:paused" ></path>
<path d="M -792 263 L -556 595 L -424 641 Z" stroke="#000000" fill="#000000" style="animation-play-state:paused" ></path>
<path d="M -408 -34 L -15 -82 L -335 -277 Z" stroke="#000000" fill="#000000" style="animation-play-state:paused" ></path>
<path d="M 3457 1377 L 3496 1568 L 3435 1917 Z" stroke="#000000" fill="#000000" style="animation-play-state:paused" ></path>
<path d="M 3308 1614 L 3496 1568 L 3330 1451 Z" stroke="#111111" fill="#111111" style="animation-play-state:paused" ></path>
<path d="M 3330 1451 L 3457 1377 L 3295 1153 Z" stroke="#1a1a1a" fill="#1a1a1a" style="animation-play-state:paused" ></path>
<path d="M 3487 90 L 3145 -145 L 3416 212 Z" stroke="#000000" fill="#000000" style="animation-play-state:paused" ></path>
<path d="M 3416 212 L 3145 -145 L 3087 109 Z" stroke="#101010" fill="#101010" style="animation-play-state:paused" ></path>
<path d="M -709 736 L -498 1463 L -518 1280 Z" stroke="#000000" fill="#000000" style="animation-play-state:paused" ></path>
<path d="M -518 1280 L -498 1463 L -477 1349 Z" stroke="#000000" fill="#000000" style="animation-play-state:paused" ></path>
<path d="M -524 1596 L -344 1796 L -256 1752 Z" stroke="#050505" fill="#050505" style="animation-play-state:paused" ></path>
<path d="M 3394 743 L 3487 318 L 3488 620 Z" stroke="#060606" fill="#060606" style="animation-play-state:paused" ></path>
<path d="M 3488 620 L 3487 318 L 3382 500 Z" stroke="#020202" fill="#020202" style="animation-play-state:paused" ></path>
<path d="M 3457 1377 L 3487 318 L 3394 743 Z" stroke="#111111" fill="#111111" style="animation-play-state:paused" ></path>
<path d="M -792 263 L -709 736 L -556 595 Z" stroke="#000000" fill="#000000" style="animation-play-state:paused" ></path>
<path d="M -556 595 L -709 736 L -535 974 Z" stroke="#000000" fill="#000000" style="animation-play-state:paused" ></path>
<path d="M 3052 2333 L 3077 2268 L 3024 2583 Z" stroke="#000000" fill="#000000" style="animation-play-state:paused" ></path>
<path d="M 3204 2016 L 3435 1917 L 3308 1614 Z" stroke="#060606" fill="#060606" style="animation-play-state:paused" ></path>
<path d="M -335 -277 L -15 -82 L -16 -350 Z" stroke="#000000" fill="#000000" style="animation-play-state:paused" ></path>
<path d="M 3487 318 L 3487 90 L 3416 212 Z" stroke="#000000" fill="#000000" style="animation-play-state:paused" ></path>
<path d="M 3024 2583 L 3077 2268 L 2709 2348 Z" stroke="#060606" fill="#060606" style="animation-play-state:paused" ></path>
<path d="M 3077 2268 L 3052 2333 L 3204 2016 Z" stroke="#040404" fill="#040404" style="animation-play-state:paused" ></path>
<path d="M 3435 1917 L 3496 1568 L 3308 1614 Z" stroke="#000000" fill="#000000" style="animation-play-state:paused" ></path>
<path d="M 3496 1568 L 3457 1377 L 3330 1451 Z" stroke="#0b0b0b" fill="#0b0b0b" style="animation-play-state:paused" ></path>
<path d="M -247 2312 L 60 2115 L -311 2119 Z" stroke="#000000" fill="#000000" style="animation-play-state:paused" ></path>
<path d="M -247 2312 L 69 2458 L 60 2115 Z" stroke="#040404" fill="#040404" style="animation-play-state:paused" ></path>
<path d="M 174 2387 L 69 2458 L 554 2540 Z" stroke="#171717" fill="#171717" style="animation-play-state:paused" ></path>
<path d="M -444 2302 L -247 2312 L -311 2119 Z" stroke="#000000" fill="#000000" style="animation-play-state:paused" ></path>
<path d="M -423 -469 L -335 -277 L -16 -350 Z" stroke="#000000" fill="#000000" style="animation-play-state:paused" ></path>
<path d="M -675 1904 L -524 1596 L -498 1463 Z" stroke="#000000" fill="#000000" style="animation-play-state:paused" ></path>
<path d="M -498 1463 L -524 1596 L -256 1752 Z" stroke="#020202" fill="#020202" style="animation-play-state:paused" ></path>
<path d="M -777 2057 L -444 2302 L -311 2119 Z" stroke="#000000" fill="#000000" style="animation-play-state:paused" ></path>
<path d="M 3145 -145 L 3253 -395 L 2872 -346 Z" stroke="#000000" fill="#000000" style="animation-play-state:paused" ></path>
<path d="M 3432 -199 L 3253 -395 L 3145 -145 Z" stroke="#000000" fill="#000000" style="animation-play-state:paused" ></path>
<path d="M 3487 90 L 3432 -199 L 3145 -145 Z" stroke="#000000" fill="#000000" style="animation-play-state:paused" ></path>
<path d="M 3337 2154 L 3435 1917 L 3204 2016 Z" stroke="#000000" fill="#000000" style="animation-play-state:paused" ></path>
<path d="M -600 -54 L -583 115 L -408 -34 Z" stroke="#000000" fill="#000000" style="animation-play-state:paused" ></path>
<path d="M -408 -34 L -583 115 L -346 385 Z" stroke="#000000" fill="#000000" style="animation-play-state:paused" ></path>
<path d="M -583 115 L -792 263 L -346 385 Z" stroke="#000000" fill="#000000" style="animation-play-state:paused" ></path>
<path d="M -709 736 L -675 1904 L -498 1463 Z" stroke="#000000" fill="#000000" style="animation-play-state:paused" ></path>
<path d="M -335 -277 L -600 -54 L -408 -34 Z" stroke="#000000" fill="#000000" style="animation-play-state:paused" ></path>
<path d="M -583 115 L -600 -54 L -792 263 Z" stroke="#000000" fill="#000000" style="animation-play-state:paused" ></path>
<path d="M 11 -477 L -423 -469 L -16 -350 Z" stroke="#000000" fill="#000000" style="animation-play-state:paused" ></path>
<path d="M 2432 2491 L 3024 2583 L 2709 2348 Z" stroke="#171717" fill="#171717" style="animation-play-state:paused" ></path>
<path d="M 3052 2333 L 3337 2154 L 3204 2016 Z" stroke="#000000" fill="#000000" style="animation-play-state:paused" ></path>
<path d="M 1963 2457 L 3024 2583 L 2432 2491 Z" stroke="#272727" fill="#272727" style="animation-play-state:paused" ></path>
<path d="M 3503 2502 L 3337 2154 L 3052 2333 Z" stroke="#000000" fill="#000000" style="animation-play-state:paused" ></path>
<path d="M -546 -318 L -600 -54 L -335 -277 Z" stroke="#000000" fill="#000000" style="animation-play-state:paused" ></path>
<path d="M -792 263 L -675 1904 L -709 736 Z" stroke="#000000" fill="#000000" style="animation-play-state:paused" ></path>
<path d="M -524 1596 L -675 1904 L -344 1796 Z" stroke="#000000" fill="#000000" style="animation-play-state:paused" ></path>
<path d="M -777 2057 L -311 2119 L -344 1796 Z" stroke="#000000" fill="#000000" style="animation-play-state:paused" ></path>
<path d="M -247 2312 L -444 2302 L 69 2458 Z" stroke="#000000" fill="#000000" style="animation-play-state:paused" ></path>
<path d="M -423 -469 L -546 -318 L -335 -277 Z" stroke="#000000" fill="#000000" style="animation-play-state:paused" ></path>
<path d="M -600 -54 L -546 -318 L -792 263 Z" stroke="#000000" fill="#000000" style="animation-play-state:paused" ></path>
<path d="M 3432 -199 L 3334 -473 L 3253 -395 Z" stroke="#000000" fill="#000000" style="animation-play-state:paused" ></path>
<path d="M 3253 -395 L 3334 -473 L 2788 -415 Z" stroke="#000000" fill="#000000" style="animation-play-state:paused" ></path>
<path d="M 3487 90 L 3334 -473 L 3432 -199 Z" stroke="#000000" fill="#000000" style="animation-play-state:paused" ></path>
<path d="M 3487 318 L 3334 -473 L 3487 90 Z" stroke="#000000" fill="#000000" style="animation-play-state:paused" ></path>
<path d="M -770 2187 L -777 2057 L -675 1904 Z" stroke="#000000" fill="#000000" style="animation-play-state:paused" ></path>
<path d="M -675 1904 L -777 2057 L -344 1796 Z" stroke="#000000" fill="#000000" style="animation-play-state:paused" ></path>
<path d="M 3024 2583 L 3503 2502 L 3052 2333 Z" stroke="#000000" fill="#000000" style="animation-play-state:paused" ></path>
<path d="M 3337 2154 L 3503 2502 L 3435 1917 Z" stroke="#000000" fill="#000000" style="animation-play-state:paused" ></path>
<path d="M 3435 1917 L 3503 2502 L 3457 1377 Z" stroke="#000000" fill="#000000" style="animation-play-state:paused" ></path>
<path d="M -792 263 L -770 2187 L -675 1904 Z" stroke="#000000" fill="#000000" style="animation-play-state:paused" ></path>
<path d="M -777 2057 L -770 2187 L -444 2302 Z" stroke="#000000" fill="#000000" style="animation-play-state:paused" ></path>
<path d="M -444 2302 L -770 2187 L 69 2458 Z" stroke="#000000" fill="#000000" style="animation-play-state:paused" ></path></g>
<style type="text/css" style="animation-play-state:paused" >#bk-0.25039867607340693 path { stroke-width: 1 }</style></g></svg>